<?xml version="1.0" encoding="UTF-8" standalone="no"?>
<!DOCTYPE svg PUBLIC "-//W3C//DTD SVG 1.1//EN" "http://www.w3.org/Graphics/SVG/1.1/DTD/svg11.dtd">
<svg width="100%" height="100%" viewBox="0 0 296 256" version="1.1" xmlns="http://www.w3.org/2000/svg" xmlns:xlink="http://www.w3.org/1999/xlink" xml:space="preserve" xmlns:serif="http://www.serif.com/" style="fill-rule:evenodd;clip-rule:evenodd;stroke-linecap:round;stroke-linejoin:round;stroke-miterlimit:1.5;">
    <g transform="matrix(1,0,0,1,-333.128,-493.392)">
        <g>
            <g transform="matrix(1,0,0,1,-168.367,-348.177)">
                <path d="M766.346,1086.85L732.13,1029.23" style="fill:none;stroke:black;stroke-width:1px;"/>
            </g>
            <g transform="matrix(1,0,0,1,-168.367,-348.177)">
                <path d="M704.454,982.627L654.392,898.321L535.851,887.623" style="fill:none;stroke:black;stroke-width:1px;"/>
            </g>
            <g transform="matrix(1,0,0,1,-168.367,-348.177)">
                <g transform="matrix(1,0,0,1,-84.3171,-249.856)">
                    <path d="M595.142,1092.13L734.329,1109.32" style="fill:none;stroke:black;stroke-width:1px;"/>
                </g>
                <g transform="matrix(1,0,0,1,-84.3171,-249.856)">
                    <path d="M608.984,1129.81L722.63,1339.11L720.749,1346.77C718.52,1346.42 717.07,1345.28 715.917,1343.74L595.843,1120.17C595.843,1120.17 591.543,1118.61 590.398,1117.52C588.031,1115.27 586.942,1111.13 586.533,1108.81C585.983,1105.68 586.569,1101.92 587.097,1098.83C587.493,1096.5 588.97,1093.7 590.529,1092.65C592.088,1091.6 594.789,1091.82 596.452,1092.5C597.475,1092.91 600.368,1095.49 604.584,1103.73C606.602,1107.68 607.758,1112.49 608.035,1117.7C608.231,1121.38 607.763,1126.02 607.763,1126.02L608.984,1129.81Z" style="fill:none;stroke:black;stroke-width:1px;"/>
                </g>
                <g transform="matrix(1.03288,0,0,0.923712,37.3794,-149.185)">
                    <path d="M592.842,1091.94C594.107,1091.85 595.463,1092.1 596.452,1092.5C597.475,1092.91 600.368,1095.49 604.584,1103.73C606.602,1107.68 607.758,1112.49 608.035,1117.7C608.231,1121.38 607.763,1126.02 607.763,1126.02L608.984,1129.81L664.903,1232.79" style="fill:none;stroke:black;stroke-width:1.02px;"/>
                </g>
                <g transform="matrix(1.03288,0,0,0.923712,37.3794,-149.185)">
                    <path d="M688.537,1276.32L721.874,1337.71L717.665,1346.03" style="fill:none;stroke:black;stroke-width:1.02px;"/>
                </g>
                <g transform="matrix(1,0,0,1,-84.3171,-249.856)">
                    <path d="M616.448,1131L730.662,1338.69L728.578,1346.62L720.649,1346.77L722.843,1338.97L730.662,1338.69" style="fill:none;stroke:black;stroke-width:1px;"/>
                </g>
                <g transform="matrix(1,0,0,1,-84.3171,-249.856)">
                    <path d="M856.124,1344.09L860.919,1336.28L825.477,1278.96" style="fill:none;stroke:black;stroke-width:1px;"/>
                </g>
                <g transform="matrix(1,0,0,1,-84.3171,-249.856)">
                    <path d="M798.902,1235.98L741.352,1142.89L740.68,1139.04L616.754,1125.63L616.441,1130.95" style="fill:none;stroke:black;stroke-width:1px;"/>
                </g>
                <g transform="matrix(1.00102,-1.70021e-05,-1.70021e-05,1,-85.1733,-249.842)">
                    <path d="M728.682,1346.62L862.776,1344.24" style="fill:none;stroke:black;stroke-width:1px;"/>
                </g>
                <g transform="matrix(1,0,0,1,-84.3171,-249.856)">
                    <path d="M730.746,1338.6L867.09,1336.59" style="fill:none;stroke:black;stroke-width:1px;"/>
                </g>
                <g transform="matrix(1,0,0,1,-84.3171,-249.856)">
                    <path d="M616.495,1130.82L741.49,1143.03" style="fill:none;stroke:black;stroke-width:1px;"/>
                </g>
            </g>
            <g transform="matrix(1,0,0,1,-168.367,-348.177)">
                <path d="M758.413,1086.51L724.417,1029.16" style="fill:none;stroke:black;stroke-width:1px;"/>
            </g>
            <g transform="matrix(1,0,0,1,-168.367,-348.177)">
                <path d="M694.928,979.416L649.354,902.532L538.548,892.787" style="fill:none;stroke:black;stroke-width:1px;"/>
            </g>
            <g transform="matrix(1,0,0,1,20,0)">
                <path d="M381.605,601.408L432.536,604.654L608.645,668.172L607.474,682.643L479.787,679.214L411.08,655.109L381.605,601.408Z" style="fill:white;fill-opacity:0;stroke:black;stroke-width:0.83px;"/>
            </g>
            <g transform="matrix(1,0,0,1,-15.0481,12.3246)">
                <path d="M417.434,590.836L466.521,594.109" style="fill:none;stroke:black;stroke-width:0.83px;"/>
            </g>
            <g transform="matrix(1.02999,0.00919486,0.00919486,1.00282,40.0927,17.4707)">
                <path d="M394.154,583.703L558.456,643.335" style="fill:none;stroke:black;stroke-width:0.81px;"/>
            </g>
            <g transform="matrix(1,0,0,1,35,28)">
                <path d="M466.788,635.707L385.577,608.444L466.788,635.707Z" style="fill:none;stroke:black;stroke-width:0.83px;"/>
            </g>
            <g transform="matrix(1,0,0,1,35,27)">
                <path d="M396.093,628.187L464.833,652.269L466.083,639.863L388.713,614.737" style="fill:none;stroke:black;stroke-width:0.83px;"/>
            </g>
            <g transform="matrix(1,0,0,1,-14.115,11.8649)">
                <path d="M415.506,589.404L466.481,592.706" style="fill:none;stroke:black;stroke-width:0.83px;"/>
            </g>
            <g transform="matrix(1,0,0,1,35,27)">
                <path d="M593.53,640.968L592.348,655.6" style="fill:none;stroke:black;stroke-width:0.83px;"/>
            </g>
            <g transform="matrix(1,0,0,1,35,27)">
                <path d="M464.732,652.038L466.118,639.893L593.327,643.482L593.53,640.968L417.429,577.582" style="fill:none;stroke:black;stroke-width:0.83px;"/>
            </g>
            <g transform="matrix(1.08593,0,0,0.678034,-5.54449,235.611)">
                <path d="M583.974,638.01L467.108,631.365L583.974,638.01Z" style="fill:none;stroke:black;stroke-width:0.92px;"/>
            </g>
            <g transform="matrix(0.238213,-0.0864229,-0.46649,0.506783,773.299,201.935)">
                <path d="M585.303,935.469L675.785,991.41" style="fill:none;stroke:rgb(178,178,178);stroke-width:8.01px;"/>
            </g>
            <g transform="matrix(0.238213,-0.0864229,-0.46649,0.506783,780.446,200.936)">
                <path d="M585.303,935.469L675.785,991.41" style="fill:none;stroke:rgb(178,178,178);stroke-width:8.01px;"/>
            </g>
        </g>
    </g>
</svg>
