<?xml version="1.0" encoding="UTF-8" standalone="no"?>
<!DOCTYPE svg PUBLIC "-//W3C//DTD SVG 1.1//EN" "http://www.w3.org/Graphics/SVG/1.1/DTD/svg11.dtd">
<svg width="100%" height="100%" viewBox="0 0 282 256" version="1.1" xmlns="http://www.w3.org/2000/svg" xmlns:xlink="http://www.w3.org/1999/xlink" xml:space="preserve" xmlns:serif="http://www.serif.com/" style="fill-rule:evenodd;clip-rule:evenodd;stroke-linecap:round;stroke-linejoin:round;stroke-miterlimit:1.5;">
    <g transform="matrix(1,0,0,1,-132.135,-830.693)">
        <g>
            <g transform="matrix(1,0,0,1,-453.677,-260.732)">
                <path d="M595.142,1092.13L734.329,1109.32" style="fill:none;stroke:black;stroke-width:1px;"/>
            </g>
            <g transform="matrix(1,0,0,1,-453.677,-260.732)">
                <path d="M608.984,1129.81L722.63,1339.11L720.749,1346.77C718.52,1346.42 717.07,1345.28 715.917,1343.74L595.843,1120.17C595.843,1120.17 591.543,1118.61 590.398,1117.52C588.031,1115.27 586.942,1111.13 586.533,1108.81C585.983,1105.68 586.569,1101.92 587.097,1098.83C587.493,1096.5 588.97,1093.7 590.529,1092.65C592.088,1091.6 594.789,1091.82 596.452,1092.5C597.475,1092.91 600.368,1095.49 604.584,1103.73C606.602,1107.68 607.758,1112.49 608.035,1117.7C608.231,1121.38 607.763,1126.02 607.763,1126.02L608.984,1129.81Z" style="fill:none;stroke:black;stroke-width:1px;"/>
            </g>
            <g transform="matrix(1.03288,0,0,0.923712,-331.98,-160.061)">
                <path d="M592.842,1091.94C594.107,1091.85 595.463,1092.1 596.452,1092.5C597.475,1092.91 600.368,1095.49 604.584,1103.73C606.602,1107.68 607.758,1112.49 608.035,1117.7C608.231,1121.38 607.763,1126.02 607.763,1126.02L608.984,1129.81L721.874,1337.71L717.665,1346.03" style="fill:none;stroke:black;stroke-width:1.02px;"/>
            </g>
            <g transform="matrix(1,0,0,1,-453.677,-260.732)">
                <path d="M616.448,1131L730.662,1338.69L728.578,1346.62L720.649,1346.77L722.843,1338.97L730.662,1338.69" style="fill:none;stroke:black;stroke-width:1px;"/>
            </g>
            <g transform="matrix(1,0,0,1,-453.677,-260.732)">
                <path d="M856.124,1344.09L860.919,1336.28L741.352,1142.89L740.68,1139.04L616.754,1125.63L616.441,1130.95" style="fill:none;stroke:black;stroke-width:1px;"/>
            </g>
            <g transform="matrix(1.00102,-1.70021e-05,-1.70021e-05,1,-454.533,-260.718)">
                <path d="M728.682,1346.62L862.776,1344.24" style="fill:none;stroke:black;stroke-width:1px;"/>
            </g>
            <g transform="matrix(1,0,0,1,-453.677,-260.732)">
                <path d="M730.746,1338.6L867.09,1336.59" style="fill:none;stroke:black;stroke-width:1px;"/>
            </g>
            <g transform="matrix(1,0,0,1,-456.875,-266.346)">
                <path d="M730.746,1338.6L860.365,1336.69" style="fill:none;stroke:black;stroke-width:1px;"/>
            </g>
            <g transform="matrix(1,0,0,1,-460.305,-272.973)">
                <path d="M730.746,1338.6L859.751,1336.72" style="fill:none;stroke:black;stroke-width:1px;"/>
            </g>
            <g transform="matrix(1,0,0,1,-464.267,-280.595)">
                <path d="M730.746,1338.6L859.339,1336.76" style="fill:none;stroke:black;stroke-width:1px;"/>
            </g>
            <g transform="matrix(1,0,0,1,-469.51,-289.084)">
                <path d="M731.151,1338.6L859.733,1337.28" style="fill:none;stroke:black;stroke-width:1px;"/>
            </g>
            <g transform="matrix(1,0,0,1,-474.078,-296.653)">
                <path d="M731.503,1338.6L859.97,1337.98" style="fill:none;stroke:black;stroke-width:1px;"/>
            </g>
            <g transform="matrix(0.97532,0.000363002,0.000363002,0.999995,-460.54,-305.635)">
                <path d="M730.746,1338.6L862.396,1338.76" style="fill:none;stroke:black;stroke-width:1.01px;"/>
            </g>
            <g transform="matrix(1,0,0,1,-482.162,-311.905)">
                <path d="M731.418,1338.59L858.925,1338.42" style="fill:none;stroke:black;stroke-width:1px;"/>
            </g>
            <g transform="matrix(1,0,0,1,-486.828,-320.651)">
                <path d="M731.059,1338.6L858.966,1339.73" style="fill:none;stroke:black;stroke-width:1px;"/>
            </g>
            <g transform="matrix(1,0,0,1,-491.179,-328.529)">
                <path d="M730.964,1338.6L858.463,1339.82" style="fill:none;stroke:black;stroke-width:1px;"/>
            </g>
            <g transform="matrix(1,0,0,1,-495.457,-336.323)">
                <path d="M730.746,1338.6L858.437,1340.7" style="fill:none;stroke:black;stroke-width:1px;"/>
            </g>
            <g transform="matrix(1,0,0,1,-499.421,-343.751)">
                <path d="M730.746,1338.6L858.558,1341.72" style="fill:none;stroke:black;stroke-width:1px;"/>
            </g>
            <g transform="matrix(1,0,0,1,-503.64,-351.04)">
                <path d="M730.746,1338.6L858.134,1341.63" style="fill:none;stroke:black;stroke-width:1px;"/>
            </g>
            <g transform="matrix(1,0,0,1,-507.784,-359.35)">
                <path d="M730.746,1338.6L857.393,1341.94" style="fill:none;stroke:black;stroke-width:1px;"/>
            </g>
            <g transform="matrix(1,0,0,1,-511.698,-365.866)">
                <path d="M730.746,1338.6L857.202,1342.11" style="fill:none;stroke:black;stroke-width:1px;"/>
            </g>
            <g transform="matrix(1,0,0,1,-515.829,-373.596)">
                <path d="M730.746,1338.6L857.475,1343.22" style="fill:none;stroke:black;stroke-width:1px;"/>
            </g>
            <g transform="matrix(1,0,0,1,-519.08,-379.174)">
                <path d="M730.796,1337.67L856.895,1342.68" style="fill:none;stroke:black;stroke-width:1px;"/>
            </g>
            <g transform="matrix(1,0,0,1,-523.655,-387.713)">
                <path d="M730.746,1338.6L857.027,1344.4" style="fill:none;stroke:black;stroke-width:1px;"/>
            </g>
            <g transform="matrix(1,0,0,1,-527.555,-394.828)">
                <path d="M730.746,1338.6L857.044,1344.9" style="fill:none;stroke:black;stroke-width:1px;"/>
            </g>
            <g transform="matrix(1,0,0,1,-531.988,-402.368)">
                <path d="M731.329,1338.63L857.32,1345.78" style="fill:none;stroke:black;stroke-width:1px;"/>
            </g>
            <g transform="matrix(1,0,0,1,-536.228,-409.825)">
                <path d="M731.295,1338.63L857.704,1346.8" style="fill:none;stroke:black;stroke-width:1px;"/>
            </g>
            <g transform="matrix(1,0,0,1,-538.475,-415.751)">
                <path d="M730.23,1338.6L855.774,1346" style="fill:none;stroke:black;stroke-width:1px;"/>
            </g>
            <g transform="matrix(1,0,0,1,-542.724,-423.491)">
                <path d="M730.331,1338.57L856.28,1347.78" style="fill:none;stroke:black;stroke-width:1px;"/>
            </g>
            <g transform="matrix(1,0,0,1,-546.744,-429.883)">
                <path d="M730.746,1338.6L856.189,1347.36" style="fill:none;stroke:black;stroke-width:1px;"/>
            </g>
            <g transform="matrix(1,0,0,1,-550.944,-436.681)">
                <path d="M731.17,1338.63L856.782,1348.56" style="fill:none;stroke:black;stroke-width:1px;"/>
            </g>
            <g transform="matrix(1,0,0,1,-554.429,-443.097)">
                <path d="M731.257,1338.63L855.706,1348.06" style="fill:none;stroke:black;stroke-width:1px;"/>
            </g>
            <g transform="matrix(1,0,0,1,-556.946,-449.677)">
                <path d="M730.265,1338.56L854.772,1348.49" style="fill:none;stroke:black;stroke-width:1px;"/>
            </g>
            <g transform="matrix(1,0,0,1,-561.708,-457.382)">
                <path d="M730.746,1338.6L855.639,1349.94" style="fill:none;stroke:black;stroke-width:1px;"/>
            </g>
            <g transform="matrix(1,0,0,1,-565.152,-462.966)">
                <path d="M731.193,1338.63L855.343,1349.49" style="fill:none;stroke:black;stroke-width:1px;"/>
            </g>
            <g transform="matrix(1,0,0,1,-453.677,-260.732)">
                <path d="M616.495,1130.82L741.49,1143.03" style="fill:none;stroke:black;stroke-width:1px;"/>
            </g>
        </g>
    </g>
</svg>
