<?xml version="1.0" encoding="UTF-8" standalone="no"?>
<!DOCTYPE svg PUBLIC "-//W3C//DTD SVG 1.1//EN" "http://www.w3.org/Graphics/SVG/1.1/DTD/svg11.dtd">
<svg width="100%" height="100%" viewBox="0 0 296 256" version="1.1" xmlns="http://www.w3.org/2000/svg" xmlns:xlink="http://www.w3.org/1999/xlink" xml:space="preserve" xmlns:serif="http://www.serif.com/" style="fill-rule:evenodd;clip-rule:evenodd;stroke-linecap:round;stroke-linejoin:round;stroke-miterlimit:1.5;">
    <g transform="matrix(1,0,0,1,-843.128,-643.392)">
        <g>
            <g transform="matrix(1,0,0,1,341.633,-198.177)">
                <path d="M766.346,1086.85L732.143,1029.26" style="fill:none;stroke:black;stroke-width:1px;"/>
            </g>
            <g transform="matrix(1,0,0,1,341.633,-198.177)">
                <g transform="matrix(1,0,0,1,-84.3171,-249.856)">
                    <path d="M595.142,1092.13L734.329,1109.32" style="fill:none;stroke:black;stroke-width:1px;"/>
                </g>
                <g transform="matrix(1,0,0,1,-84.3171,-249.856)">
                    <path d="M608.984,1129.81L722.63,1339.11L720.749,1346.77C718.52,1346.42 717.07,1345.28 715.917,1343.74L595.843,1120.17C595.843,1120.17 591.543,1118.61 590.398,1117.52C588.031,1115.27 586.942,1111.13 586.533,1108.81C585.983,1105.68 586.569,1101.92 587.097,1098.83C587.493,1096.5 588.97,1093.7 590.529,1092.65C592.088,1091.6 594.789,1091.82 596.452,1092.5C597.475,1092.91 600.368,1095.49 604.584,1103.73C606.602,1107.68 607.758,1112.49 608.035,1117.7C608.231,1121.38 607.763,1126.02 607.763,1126.02L608.984,1129.81Z" style="fill:none;stroke:black;stroke-width:1px;"/>
                </g>
                <g transform="matrix(1.03288,0,0,0.923712,37.3794,-149.185)">
                    <path d="M592.842,1091.94C594.107,1091.85 595.463,1092.1 596.452,1092.5C597.475,1092.91 600.368,1095.49 604.584,1103.73C606.602,1107.68 607.758,1112.49 608.035,1117.7C608.231,1121.38 607.763,1126.02 607.763,1126.02L608.984,1129.81L617.557,1145.6" style="fill:none;stroke:black;stroke-width:1.02px;"/>
                </g>
                <g transform="matrix(1.03288,0,0,0.923712,37.3794,-149.185)">
                    <path d="M688.371,1276.01L721.874,1337.71L717.665,1346.03" style="fill:none;stroke:black;stroke-width:1.02px;"/>
                </g>
                <g transform="matrix(1,0,0,1,-84.3171,-249.856)">
                    <path d="M616.448,1131L730.662,1338.69L728.578,1346.62L720.649,1346.77L722.843,1338.97L730.662,1338.69" style="fill:none;stroke:black;stroke-width:1px;"/>
                </g>
                <g transform="matrix(1,0,0,1,-84.3171,-249.856)">
                    <path d="M856.124,1344.09L860.919,1336.28L825.647,1279.23" style="fill:none;stroke:black;stroke-width:1px;"/>
                </g>
                <g transform="matrix(1,0,0,1,-84.3171,-249.856)">
                    <path d="M741.352,1142.89L740.68,1139.04L616.754,1125.63L616.441,1130.95" style="fill:none;stroke:black;stroke-width:1px;"/>
                </g>
                <g transform="matrix(1.00102,-1.70021e-05,-1.70021e-05,1,-85.1733,-249.842)">
                    <path d="M728.682,1346.62L862.776,1344.24" style="fill:none;stroke:black;stroke-width:1px;"/>
                </g>
                <g transform="matrix(1,0,0,1,-84.3171,-249.856)">
                    <path d="M730.746,1338.6L867.09,1336.59" style="fill:none;stroke:black;stroke-width:1px;"/>
                </g>
                <g transform="matrix(1,0,0,1,-84.3171,-249.856)">
                    <path d="M616.495,1130.82L741.49,1143.03" style="fill:none;stroke:black;stroke-width:1px;"/>
                </g>
            </g>
            <g transform="matrix(1,0,0,1,341.633,-198.177)">
                <path d="M758.413,1086.51L724.131,1028.68" style="fill:none;stroke:black;stroke-width:1px;"/>
            </g>
            <g transform="matrix(1,0,0,1,530,150)">
                <path d="M608.645,668.172L607.474,682.643L479.787,679.214L411.08,655.109L381.605,601.408L416.604,603.639" style="fill:white;fill-opacity:0;stroke:black;stroke-width:0.83px;"/>
            </g>
            <g transform="matrix(1,0,0,1,494.952,162.325)">
                <path d="M417.434,590.836L453.177,593.219" style="fill:none;stroke:black;stroke-width:0.83px;"/>
            </g>
            <g transform="matrix(1,0,0,1,545,178)">
                <path d="M385.577,608.444L460.786,633.692" style="fill:none;stroke:black;stroke-width:0.83px;"/>
            </g>
            <g transform="matrix(1,0,0,1,545,177)">
                <path d="M396.093,628.187L464.846,652.056L466.083,639.863L388.713,614.737" style="fill:none;stroke:black;stroke-width:0.83px;"/>
            </g>
            <g transform="matrix(1,0,0,1,545,177)">
                <path d="M593.53,640.968L592.348,655.6" style="fill:none;stroke:black;stroke-width:0.83px;"/>
            </g>
            <g transform="matrix(1,0,0,1,545,177)">
                <path d="M464.753,651.944L466.118,640.041L593.327,643.482L593.53,640.968" style="fill:none;stroke:black;stroke-width:0.83px;"/>
            </g>
            <g transform="matrix(1.08593,0,0,0.678034,504.456,385.611)">
                <path d="M583.974,638.01L463.758,631.417L583.974,638.01Z" style="fill:none;stroke:black;stroke-width:0.92px;"/>
            </g>
            <g transform="matrix(1,0,0,1,230.265,-570.901)">
                <path d="M730.746,1338.6L857.526,1344.91" style="fill:none;stroke:black;stroke-width:1px;"/>
            </g>
            <g transform="matrix(1,0,0,1,238.045,-564.276)">
                <path d="M730.056,1338.87L857.044,1344.9" style="fill:none;stroke:black;stroke-width:1px;"/>
            </g>
            <g transform="matrix(1,0,0,1,244.276,-557.533)">
                <path d="M730.746,1338.6L858.232,1344.66" style="fill:none;stroke:black;stroke-width:1px;"/>
            </g>
            <g transform="matrix(1,0,0,1,251.995,-551.321)">
                <path d="M730.089,1339.16L857.997,1344.9" style="fill:none;stroke:black;stroke-width:1px;"/>
            </g>
            <g transform="matrix(1,0,0,1,255.793,-546.065)">
                <path d="M730.746,1338.6L859.792,1344.9" style="fill:none;stroke:black;stroke-width:1px;"/>
            </g>
            <g transform="matrix(1,0,0,1,261.699,-539.907)">
                <path d="M732.233,1339.73L860.847,1344.89" style="fill:none;stroke:black;stroke-width:1px;"/>
            </g>
            <g transform="matrix(1,0,0,1,271.689,-533.239)">
                <path d="M730.142,1340.7L858.632,1345.44" style="fill:none;stroke:black;stroke-width:1px;"/>
            </g>
            <g transform="matrix(1,0,0,1,222.832,-578.441)">
                <path d="M730.473,1338.61L857.32,1345.78" style="fill:none;stroke:black;stroke-width:1px;"/>
            </g>
            <g transform="matrix(1,0,0,1,214.592,-585.899)">
                <path d="M731.295,1338.63L858.216,1346.8" style="fill:none;stroke:black;stroke-width:1px;"/>
            </g>
            <g transform="matrix(1,0,0,1,208.345,-591.825)">
                <path d="M731.659,1338.6L856.794,1345.75" style="fill:none;stroke:black;stroke-width:1px;"/>
            </g>
            <g transform="matrix(1,0,0,1,201.096,-599.565)">
                <path d="M731.044,1338.59L856.56,1347" style="fill:none;stroke:black;stroke-width:1px;"/>
            </g>
            <g transform="matrix(1,0,0,1,194.076,-605.957)">
                <path d="M731.128,1338.6L856.614,1347.36" style="fill:none;stroke:black;stroke-width:1px;"/>
            </g>
            <g transform="matrix(1,0,0,1,187.876,-612.754)">
                <path d="M731.17,1338.63L856.782,1348.56" style="fill:none;stroke:black;stroke-width:1px;"/>
            </g>
            <g transform="matrix(1,0,0,1,182.391,-619.171)">
                <path d="M729.944,1338.66L854.774,1348.14" style="fill:none;stroke:black;stroke-width:1px;"/>
            </g>
            <g transform="matrix(1,0,0,1,174.874,-625.751)">
                <path d="M730.265,1338.56L854.772,1348.49" style="fill:none;stroke:black;stroke-width:1px;"/>
            </g>
            <g transform="matrix(1,0,0,1,166.112,-633.456)">
                <path d="M732.302,1339.11L856.17,1349.75" style="fill:none;stroke:black;stroke-width:1px;"/>
            </g>
            <g transform="matrix(1,0,0,1,160.668,-639.039)">
                <path d="M731.193,1338.63L855.343,1349.49" style="fill:none;stroke:black;stroke-width:1px;"/>
            </g>
            <g transform="matrix(1,0,0,1,156.668,-644.039)">
                <path d="M730.479,1338.63L853.459,1349.46" style="fill:none;stroke:black;stroke-width:1px;"/>
            </g>
            <g transform="matrix(1,0,0,1,151.668,-649.039)">
                <path d="M730.307,1338.63L852.915,1349.49" style="fill:none;stroke:black;stroke-width:1px;"/>
            </g>
            <g transform="matrix(1,0,0,1,146.668,-653.039)">
                <path d="M731.193,1338.63L853.925,1349.59" style="fill:none;stroke:black;stroke-width:1px;"/>
            </g>
            <path d="M875.092,682.996L887.519,695.256L1010.64,816.764" style="fill:none;stroke:black;stroke-width:1.25px;"/>
            <path d="M998.598,695.026L1137.89,817.838" style="fill:none;stroke:black;stroke-width:1.25px;"/>
        </g>
    </g>
</svg>
